<?xml version="1.0" encoding="UTF-8"?>
<!DOCTYPE svg PUBLIC "-//W3C//DTD SVG 1.1//EN" "http://www.w3.org/Graphics/SVG/1.1/DTD/svg11.dtd">
<!-- Creator: CorelDRAW 2026 -->
<svg xmlns="http://www.w3.org/2000/svg" xml:space="preserve" width="1500px" height="478px" version="1.1" style="shape-rendering:geometricPrecision; text-rendering:geometricPrecision; image-rendering:optimizeQuality; fill-rule:evenodd; clip-rule:evenodd"
viewBox="0 0 2179.17 694.2"
 xmlns:xlink="http://www.w3.org/1999/xlink"
 xmlns:xodm="http://www.corel.com/coreldraw/odm/2003">
 <defs>
  <style type="text/css">
   <![CDATA[
    .fil0 {fill:#374708}
   ]]>
  </style>
 </defs>
 <g id="Слой_x0020_1">
  <metadata id="CorelCorpID_0Corel-Layer"/>
  <g id="_2421195591232">
   <path class="fil0" d="M551.95 348.6c-0.17,0.9 0,4.98 0,6.21l-0.6 8.88c-0.12,1.06 0.01,2.11 -0.1,3.17 -0.95,9.13 -2.73,18.5 -4.61,27.44 -4.09,19.46 -13.91,42.74 -24.05,59.01 -4.11,6.59 -8.62,12.9 -13.24,19.13 -0.96,1.29 -1.74,2.22 -2.75,3.47l-5.85 6.9c-1.09,1.41 -1.93,2.12 -3.03,3.51l-11.27 11.3c-0.79,0.66 -1.01,0.71 -1.78,1.48 -5.33,5.33 -11.64,9.89 -17.69,14.36 -4.9,3.62 -10.11,7.06 -15.4,10.1 -1.37,0.79 -2.65,1.56 -4.16,2.39 -8.36,4.57 -17.08,8.98 -26.22,12.36 -2.96,1.1 -6.12,2.34 -9.33,3.43 -3.34,1.14 -6.31,1.94 -9.8,2.95 -10.54,3.05 -21.25,4.76 -32.36,6.23 -3.84,0.51 -8.02,0.61 -11.72,1.03 -1.73,0.19 -11.5,0.35 -12.52,0.19l-12.29 -0.47c-7.64,-0.11 -15.26,-1.47 -22.7,-2.8 -3.87,-0.7 -7,-1.27 -10.59,-2.17 -11.4,-2.83 -23.07,-6.26 -33.74,-11.06 -12.87,-5.79 -25.72,-12.36 -37.05,-20.83 -4.87,-3.65 -9.93,-6.97 -14.38,-11.13 -0.7,-0.66 -0.93,-0.69 -1.63,-1.31l-5.23 -4.58c-2.22,-1.95 -4.41,-4.4 -6.55,-6.53l-4.74 -4.74c-0.7,-0.75 -0.77,-1.06 -1.47,-1.81l-5.99 -6.75c-2.83,-3.62 -5.84,-7.09 -8.38,-10.92 -4.33,-6.5 -8.7,-12.67 -12.47,-19.57 -1.57,-2.88 -3.02,-5.4 -4.47,-8.29l-7.95 -17.89c-3.81,-9.76 -6.54,-19.15 -8.93,-29.66 -2.92,-12.86 -4.75,-26.77 -4.7,-40.1 0.01,-2.27 -0.55,-3.75 -0.19,-6.07l0.52 -12.23c0.17,-12.79 3.98,-30.77 7.63,-43.38 2.77,-9.6 5.97,-19.23 10.46,-28.13 3.53,-7 6.78,-14.11 10.94,-20.78l2.55 -3.99c4.93,-7.53 10.25,-15.6 16.41,-22.18l4.41 -5.07c0.75,-0.76 0.81,-1.04 1.47,-1.8 2.94,-3.33 6.48,-6.48 9.65,-9.65l8.5 -7.52c5.18,-4.61 10.82,-8.57 16.46,-12.65 7.48,-5.41 15.72,-10.11 24.01,-14.25 2.93,-1.46 5.74,-2.79 8.92,-4.15 6.07,-2.6 11.93,-5.05 18.34,-7.17 17.98,-5.94 34.8,-8.67 53.85,-10.24 6.81,-0.56 12.69,-0.01 18.63,-0.02l12.05 0.7c1.73,0.18 3.78,0.47 5.79,0.75l21.64 3.86c3.38,0.71 6.72,1.67 10.11,2.65 3.58,1.04 6.49,1.93 9.64,3.11 13.77,5.16 18.05,7.04 31.13,13.67l30.73 20.61c8.35,6.76 12.17,10.6 20.09,18.5 12.62,12.58 26.72,33.49 34.42,48.97l4.14 8.94c3.85,7.95 7.94,19.44 10.12,28.14 3.14,12.56 4.45,18.78 6.24,32.35 0.82,6.2 1.11,12.02 1.08,18.21 0,1.19 -0.03,2.01 0.15,3.14l-0.15 2.75zm-327.99 -286.47c0,11.77 -2.86,23.82 -6.65,31.94 -4.32,9.28 -9.01,15.7 -15.51,23.08 -1.98,2.25 -5.18,4.95 -7.59,6.79 -10.02,7.65 -17.53,10.9 -29.15,14.35 -11.11,3.3 -26.83,3.02 -38.03,0.17 -2.5,-0.63 -4.92,-1.33 -7.1,-2.05 -6.57,-2.18 -13.16,-5.4 -18.65,-9.48 -0.94,-0.7 -1.7,-1.19 -2.66,-1.91 -3.33,-2.49 -5.93,-4.68 -10.7,-4.68 -7.54,0 -11.13,6.48 -15.18,11.63l-7.76 10.23c-0.67,0.91 -1.29,1.8 -1.91,2.67 -0.65,0.92 -1.25,1.71 -1.9,2.67 -1.3,1.92 -2.44,3.5 -3.72,5.44l-10.51 16.64c-2.3,3.84 -4.34,7.51 -6.54,11.44 -3.29,5.87 -5.99,12.1 -9.05,18.09 -3.32,6.5 -2.32,13.79 4.23,17.68 1.79,1.07 3.68,1.93 5.58,2.92 10.31,5.36 20.15,14.24 26.49,23.87 9.14,13.9 14.06,27.06 14.06,45.13 0,13.74 -3.5,26.38 -10.16,37.92 -0.54,0.95 -1.26,2.45 -1.89,3.34 -3.73,5.34 -7.5,10.13 -12.07,14.74 -3.55,3.6 -7.75,6.54 -11.92,9.34 -5.71,3.84 -11.53,6.37 -18.45,8.69 -4.16,1.4 -8.34,2.29 -12.77,2.92 -4.05,0.58 -9,1.43 -11.61,4.75 -3.91,4.97 -2.9,11.36 -2.09,17.25 2.21,16.04 4.76,32.07 8.9,47.67l5.88 19.96c0.91,2.75 1.86,5.25 2.7,7.76 1.98,5.92 3.17,9.4 8.85,11.75 7.2,2.97 16.79,-4.6 35.01,-4.6 19.37,0 35.77,6.15 49.78,17.59l5.24 4.57c3.21,2.83 6.31,6.99 8.89,10.41 4.29,5.68 9.48,15.73 11.17,22.5 2.66,10.63 3.4,13.42 3.4,25.38 0,11.34 -2.93,20.61 -7.05,30.55 -2.95,7.09 -6.79,11.32 -10.81,17.32 -3.14,4.69 -3.29,10.1 -0.07,14.86 2.85,4.19 23.71,18.95 30.49,23.47 1.04,0.69 1.74,1.16 2.74,1.83 1.02,0.68 1.77,1.08 2.82,1.76 13.96,9.14 25.59,14.98 40.42,22.37 7,3.49 14.32,2.04 17.66,-4.24 6.11,-11.49 11.58,-19.89 22.16,-28.53 6.34,-5.18 13.55,-9.6 21.28,-12.4 18.6,-6.73 36.67,-6.82 55.52,-0.16 1.37,0.49 2.5,0.98 3.71,1.52 7.93,3.57 16.5,8.73 22.65,14.96l5.23 5.56c3.36,3.86 6.18,8.07 8.82,12.44 4.09,6.77 7.12,15.23 8.74,23.31 0.59,2.96 0.84,6.27 1.52,9.26 0.62,2.7 2.23,5.39 4,6.79 4.97,3.91 11.36,2.91 17.26,2.1 23.06,-3.18 37.71,-6.08 60.12,-12.48 5.52,-1.58 10.32,-3.36 15.51,-5.09 5.78,-1.91 9.29,-3.36 11.64,-9.28 2.59,-6.51 -4.73,-16.59 -4.73,-35.15 0,-16.09 4.91,-30.73 13.54,-43.69 3.13,-4.69 6.85,-9.07 10.9,-12.97 13.04,-12.55 32.58,-21.17 51.1,-21.17 10.65,0 19.08,1.06 28.74,4.29 5.52,1.85 10.76,4.44 15.6,7.62l8.44 5.95c4.37,2.94 9.92,3.37 14.46,0.33 3.35,-2.24 5.94,-6.36 8.44,-9.54 1.44,-1.84 2.56,-3.31 3.97,-5.19l7.57 -10.42c3.91,-5.21 7.44,-10.76 10.78,-16.36l10.02 -17.12c1.14,-2.04 1.82,-3.79 3.03,-5.8 1.14,-1.91 2.11,-4.14 3.08,-6.08 1.94,-3.88 4.9,-8.83 4.9,-13.41 0,-9.58 -9.82,-11.75 -17.07,-16.61 -4.98,-3.33 -9.62,-7.12 -13.75,-11.42l-3.92 -4.58c-5.17,-5.78 -9.7,-13.86 -12.39,-21.3 -5.27,-14.55 -6.77,-31.33 -2.77,-47.33 0.72,-2.91 1.54,-5.63 2.58,-8.21l3.28 -7.52c3.36,-6.71 7.86,-13.52 13.22,-18.82 4.54,-4.48 9.25,-8.4 14.54,-11.95 5.76,-3.87 11.48,-6.36 18.45,-8.69 8.15,-2.74 11.14,-2.13 17.59,-3.66 5.58,-1.33 9.67,-5.9 9.67,-11.92 0,-11.58 -6,-41.98 -8.76,-53.04 -2.71,-10.85 -6.13,-21.5 -9.59,-31.94 -1.92,-5.79 -3.23,-9.29 -9,-11.59 -5.3,-2.12 -11.37,1.04 -16.53,2.33 -16.35,4.1 -35.89,2.38 -50.19,-4.29 -9.48,-4.43 -18.11,-10.25 -25.37,-17.79l-10.36 -13.84c-2.42,-4.05 -4.52,-8.67 -6.18,-13.12 -0.51,-1.34 -0.82,-2.17 -1.25,-3.65 -3.84,-13.22 -4.68,-28.1 -1.29,-41.63 1.78,-7.13 4.23,-13.97 7.94,-20.17 1.22,-2.04 2.3,-4.01 3.65,-5.84 0.7,-0.94 1.2,-1.69 1.92,-2.66 2.49,-3.32 4.67,-5.92 4.67,-10.69 0,-2.94 -0.85,-4.9 -2.08,-6.75 -1.44,-2.15 -2.65,-2.95 -4.64,-4.51l-15.14 -11.68c-8.82,-6.49 -17.99,-12.41 -27.41,-18.04 -7.56,-4.52 -15.46,-8.72 -23.32,-12.65 -4.02,-2.01 -8.78,-4.91 -13.41,-4.91 -9.72,0 -12.19,10.52 -16.61,17.08 -17.75,26.33 -50.63,41.33 -84.64,32.83 -5.59,-1.4 -10.66,-3.33 -15.72,-5.86 -6.72,-3.36 -13.53,-7.87 -18.82,-13.23 -0.95,-0.95 -1.67,-1.67 -2.62,-2.61l-5.01 -5.78c-2.4,-3.04 -4.43,-6.31 -6.42,-9.61 -1.5,-2.5 -2.39,-4.32 -3.64,-7.15 -1.22,-2.75 -1.95,-4.83 -2.96,-7.83 -2.59,-7.74 -2.17,-11.33 -3.66,-17.6 -1.32,-5.57 -5.9,-9.67 -11.91,-9.67l-0.1 0c-2,0.01 -2.81,0.17 -4.49,0.32 -1.54,0.13 -3.09,0.24 -4.75,0.47 -31.12,4.29 -47.18,8.06 -75.39,17.48 -2.63,0.88 -5.17,1.55 -7.17,2.98 -8.99,6.44 -4.28,14.88 -2.41,22.37 1.33,5.32 2.42,12.08 2.42,18.51z"/>
   <path class="fil0" d="M895.64 320.8l-40.22 0 0 -52 40.22 0c9.23,0 16.44,1.7 21.49,5.99 11.86,10.06 11.98,28.49 0.19,39.89 -4.58,4.41 -12.72,6.12 -21.68,6.12zm-2.28 -84.37l-37.94 0 0 -46.76 37.94 0c11.82,0 21.26,2.13 26.27,11.98 4.76,9.35 2.98,22.08 -5.76,29.46 -4.71,3.96 -11.96,5.32 -20.51,5.32zm-83.07 -72.92l0 183.12c0,3.89 2.77,7.2 6.54,7.2l90.59 0c16.48,0 35.77,-5.1 47.66,-16.1 2.93,-2.71 4.89,-4.95 7.32,-8.05 2.88,-3.66 4.73,-7.75 6.5,-12.15 2.19,-5.47 2.59,-9.29 3.41,-14.9 1.19,-8.13 0.05,-19.29 -3.2,-26.52 -2.25,-5.02 -4.58,-9.04 -8.14,-13.12 -0.65,-0.75 -0.75,-1.05 -1.47,-1.79 -3.11,-3.23 -9.81,-9.37 -14.15,-10.38l0 -0.66c2.99,-0.69 10.93,-7.43 12.81,-9.75 1.65,-2.05 3.17,-4.29 4.54,-6.58l3.76 -7.69c5.17,-14.77 1.47,-32.91 -6.2,-45.49 -6.86,-11.25 -22.28,-19.26 -35.1,-21.81 -6.2,-1.23 -13.09,-2.2 -20.69,-2.2l-87.64 0c-3.55,0 -6.54,3.29 -6.54,6.87z"/>
   <path class="fil0" d="M2019.92 165.14l0 179.86c0,4.51 1.75,8.83 6.54,8.83l29.75 0c5.06,0 6.57,-4.35 6.55,-8.83l-0.01 -109.22c1.08,0.78 3.98,5.81 5.04,7.39l64.68 98.16c3.01,4.49 6.47,12.5 12.69,12.5l27.14 0c2.42,0 3.63,-0.74 4.84,-2.03 0.93,-0.99 2.03,-3.02 2.03,-4.84l0 -183.13c0,-4.02 -2.74,-7.19 -6.87,-7.19l-29.43 0c-5.18,0 -6.57,4.88 -6.54,9.48l0 112.5 -62.39 -97.19c-0.93,-1.44 -1.59,-2.55 -2.55,-3.99l-9.93 -15.58c-1.69,-2.84 -3.35,-5.22 -7.86,-5.22l-27.14 0c-4.41,0 -6.54,3.96 -6.54,8.5z"/>
   <path class="fil0" d="M1653.66 245.91l-33.35 0 0 -53.95 33.35 0c13.24,0 25.58,2.57 30.37,14.42 4.31,10.65 3.72,26.1 -6.16,33.66 -5.93,4.52 -13.81,5.87 -24.21,5.87zm-78.16 -82.73l0 183.78c0,3.99 2.81,6.87 6.22,6.87l32.05 0c3.43,0 6.54,-2.79 6.54,-6.22l0 -65.72 33.35 0c1.17,0 2.26,3.32 2.84,4.35 0.94,1.68 1.57,2.96 2.5,4.69l5.12 9.6c0.81,1.63 1.63,2.9 2.51,4.68 0.91,1.83 1.69,3.03 2.62,4.91 4.33,8.77 10.92,19.78 15.26,28.56l5.25 9.46c1.93,2.92 4.36,5.69 9.03,5.69l33.03 0c2.47,0 5.23,-2.34 5.23,-6.54 0,-1.81 -3.75,-7.53 -4.69,-9.38 -0.81,-1.59 -1.67,-2.95 -2.49,-4.37l-5.03 -9.03c-0.89,-1.63 -1.71,-2.98 -2.61,-4.59l-10.25 -18.2c-2.11,-3.94 -14.76,-25.67 -15.15,-27.36 5.94,-3.14 6.99,-2.79 13.92,-7.98 14.18,-10.63 22.05,-26.34 22.05,-44.67 0,-10.62 -0.73,-19.29 -4.92,-28.76 -1.69,-3.83 -1.98,-4.47 -4.37,-8.06 -5.58,-8.37 -12.82,-14.45 -21.89,-18.99 -11.5,-5.75 -26.87,-9.26 -40.11,-9.26l-79.79 0c-3.38,0 -6.22,3.25 -6.22,6.54z"/>
   <path class="fil0" d="M1754.71 210.92c0,13.05 3.03,24.57 10.89,33.92 0.92,1.09 2.05,2.08 3.09,3.12 2.35,2.35 3.95,3.71 6.82,5.61 5.83,3.86 9.99,5.61 16.36,8.48 1.52,0.68 2.91,1.1 4.51,1.71 8.95,3.44 15.36,4.58 24.52,6.88 8.2,2.05 26.22,6.83 33.33,10.15 8.35,3.91 14.61,7.28 14.61,18.1 0,9.17 -7.55,15.27 -14.11,17.94 -9.96,4.07 -30,5.11 -41.35,0.57 -5.68,-2.27 -10.5,-5.27 -13.97,-9.91 -3.22,-4.33 -6.24,-12.2 -12,-12.2l-32.05 0c-2.47,0 -4.56,2 -5.42,3.74 -0.87,1.79 -0.09,5.83 0.32,7.9 3.39,16.67 12.9,28.5 27.07,37.03l5.87 3.29c5.31,2.24 6.46,3.23 13.17,5.14 22.89,6.49 53.2,5.84 75.61,-1.63 5.78,-1.92 9.48,-3.86 14.4,-6.53 13.22,-7.15 24.21,-20.91 27.29,-36.15 1.91,-9.46 1.39,-18.71 -0.94,-27.9 -1.7,-6.65 -6.53,-15.41 -12.04,-19.69 -1.11,-0.87 -1.63,-1.48 -2.84,-2.38 -4.37,-3.25 -4.88,-3.48 -9.74,-6.3 -2.23,-1.29 -4.77,-2.26 -7.22,-3.23 -2.63,-1.06 -4.75,-1.92 -7.6,-2.87 -21.63,-7.21 -35.66,-7.97 -57.29,-16.61 -6.91,-2.77 -15.18,-8.11 -15.18,-16.54 0,-4.9 0.02,-8.31 2.94,-12.43 7.71,-10.89 28.98,-11.26 40.3,-7.92 5.44,1.6 8.56,4.18 12.4,7.22 3.9,3.08 5.5,9.13 5.92,9.78 1.71,2.63 3.88,4.33 7.44,4.33l33.35 0c2.1,0 3.86,-1.7 4.68,-3.82 1.97,-5.1 -2.6,-16.03 -4.9,-20.16 -4.37,-7.85 -13.27,-17.4 -21.14,-22.03 -19.54,-11.49 -31.49,-13.51 -54.51,-13.51 -10.26,0 -23.09,1.96 -31.2,5.1 -6.11,2.36 -8.21,3.08 -13.91,6.36 -16.17,9.31 -27.48,25.69 -27.48,45.44z"/>
   <path class="fil0" d="M998.33 163.51l0 119.03c0,11.63 2.52,23.69 5.92,32 5.55,13.55 14.22,23.29 26.55,30.68 4.1,2.46 8.59,4.37 13.35,5.95 1.34,0.44 1.94,0.74 3.41,1.17 1.36,0.39 2.67,0.79 3.81,1.1 10.7,2.91 20.75,3.33 31.98,3.33 24.87,0 51.95,-8.62 66.32,-29.82 8.73,-12.86 12.82,-29.09 12.82,-45.06l0 -118.71c0,-3.35 -3.25,-6.54 -6.54,-6.54l-32.05 0c-3.34,0 -6.05,2.75 -6.22,6.53 -0.18,4.07 0.01,8.64 0.01,12.76 0,9.9 0.31,100.34 -0.09,103.25 -0.23,1.68 -0.07,3.96 -0.33,5.89 -0.88,6.68 -2.1,14.17 -6.17,19.66 -1.97,2.66 -3.38,4.82 -6.16,6.92 -6.41,4.85 -10.29,6.22 -18.45,7.38l-6.08 0.48 -11.43 -1.35c-3.49,-0.76 -6.41,-2.06 -9.39,-3.68 -3.16,-1.72 -4.71,-3.35 -7.07,-5.69 -1.88,-1.88 -4.15,-5.31 -5.36,-7.72 -1.25,-2.48 -2.48,-6.62 -3.09,-9.67 -0.33,-1.67 -0.64,-4 -0.86,-5.68l-0.42 -6.11c-0.25,-8.45 0.01,-17.35 0.01,-25.85l0 -77.5c0,-4.22 0.1,-8.57 0.02,-12.77 -0.08,-3.58 -2.65,-6.85 -6.23,-6.85l-32.05 0c-3.41,0 -6.21,2.88 -6.21,6.87z"/>
   <path class="fil0" d="M1377.66 162.85l0 120.02c0,16.61 4.35,31.84 12.69,44.21 3.01,4.48 9.39,11.35 14.19,14.59 7.71,5.2 10.35,6.39 18.94,9.5 21.58,7.82 50.63,7.27 72.28,0.08 5.34,-1.77 11.67,-4.7 16.16,-7.7 1.05,-0.71 1.83,-1.27 2.9,-2.01 6,-4.17 12.27,-11.53 16.15,-17.53 6.91,-10.69 10.85,-28.55 10.85,-42.45l0 -117.73c0,-4.14 -3.18,-7.19 -6.54,-7.19l-32.05 0c-3.51,0 -6.15,2.98 -6.22,6.52 -0.25,11.89 0.01,26.5 0.01,38.61 0,8.6 0.49,71.93 -0.24,77.26 -0.18,1.34 -0.11,6.01 -0.49,8.99 -0.09,0.65 -0.4,1.97 -0.53,2.74 -2.15,13.02 -11.12,24.43 -24.38,27.29 -2.1,0.45 -3.26,0.65 -5.56,0.98 -1.19,0.17 -1.95,0.08 -3.13,0.14 -3.53,0.17 -0.44,0.61 -5.61,0.04 -3.67,-0.4 -2.67,0.29 -8.76,-1.05 -1.71,-0.37 -3.54,-0.98 -4.98,-1.56 -7.25,-2.93 -13.48,-8.24 -16.85,-15.53 -2.87,-6.22 -4.39,-14.45 -4.36,-21.47l0.01 -103.34c0,-5.61 1.1,-14.3 -1.78,-17.52 -1.09,-1.21 -2.68,-2.1 -4.44,-2.1l-32.05 0c-3.3,0 -6.21,2.96 -6.21,6.21z"/>
   <path class="fil0" d="M354.77 217.14c0,16.18 8.05,42.21 16.16,55.78 3.27,5.48 4.85,8.25 8.36,13.22l6.32 8.07c2.03,2.42 8.16,9.21 10.46,11.12 8.89,7.44 9.16,8.24 20.37,15.6 13.1,8.61 33.07,16.87 48.86,16.87 7.88,0 15.34,-2.01 22.01,-5.12 12.24,-5.7 21.37,-14.63 27.04,-27.24 6.09,-13.54 6.34,-26.43 1.68,-40.6 -1.66,-5.04 -6.26,-13.31 -9.94,-17.21 -0.51,-0.55 -0.81,-0.76 -1.27,-1.34 -6.35,-7.92 -19.55,-15.01 -29.85,-16.92 -3.27,-0.6 -6.59,-0.64 -9.78,-1.04 -1.36,-0.17 -2.92,0.25 -4.81,0.25 -6.54,-0.04 -15.39,3.12 -21.35,6.11 -15.07,7.53 -28.41,9.25 -44.57,3.91l-5.03 -1.84c0.45,-0.62 1.04,-0.95 1.78,-1.49 4.23,-3.12 8.03,-10.08 8.03,-15.52 0,-7.38 -1.04,-12.03 -6.3,-17.25 -9.2,-9.15 -23.26,-8.79 -31.89,0 -2.85,2.9 -6.28,9.02 -6.28,14.64z"/>
   <path class="fil0" d="M356.4 463.7c0,18.08 8.63,35.91 23.54,45.79 2.75,1.82 5.49,3.6 8.79,4.95 1.42,0.58 3.17,1.33 4.67,1.87 14.33,5.13 30.5,3.18 43.45,-3.55 5.69,-2.96 6.88,-4.55 11.07,-7.9 2.86,-2.29 1.9,-1.81 4.05,-4.13 8.34,-8.97 11.71,-18.47 13.47,-30.01 0.28,-1.77 0.06,-3.48 0.33,-5.25 0.32,-2.14 -0.42,-7.73 -0.7,-9.71 -2.37,-16.86 -12.53,-21.78 -12.53,-43.72 0,-6.52 1.19,-11.85 3.07,-17.54 0.57,-1.73 1.49,-3.55 1.84,-5.03 0.5,0.37 6.68,9.81 17,9.81 7.48,0 11.96,-1.03 17.58,-6.62 6.91,-6.87 8.08,-16.7 4.05,-25.47 -3.29,-7.15 -11.58,-12.38 -19.34,-12.38 -4.25,0 -8.89,0.71 -12.71,1.35 -4.14,0.7 -8.09,1.57 -11.88,2.51 -9.52,2.36 -17.55,5.6 -25.88,9.76 -5.38,2.69 -8.54,4.43 -13.76,7.83 -6.15,4 -14.6,10.78 -19.73,15.91 -3.53,3.54 -7.15,7.41 -10.26,11.32 -11.47,14.4 -26.12,40.18 -26.12,60.21z"/>
   <path class="fil0" d="M241.62 281.23c0,6.46 -1.4,15.26 -3.93,20.92 -0.44,0.98 -0.69,1.4 -0.98,2.63 -0.61,-0.45 -0.95,-1.04 -1.49,-1.78 -0.62,-0.85 -0.81,-1.05 -1.52,-1.75 -1.02,-1 -2.69,-2.3 -3.87,-3 -8.87,-5.31 -19.99,-4.39 -27.37,3.01 -14.79,14.83 -3.17,38.18 14.96,38.18 17.49,0 42.8,-8.63 57.74,-17.47 0.83,-0.49 1.41,-0.86 2.24,-1.36l12.81 -8.78c3.05,-2.38 12.69,-10.69 15.04,-13.73l6.68 -7.71c9.86,-12.93 14.87,-21.47 20.79,-36.77 5.74,-14.86 7.47,-31.56 0.13,-46.29 -1.74,-3.5 -2.45,-5.37 -4.9,-8.83 -10.23,-14.43 -26.38,-23.55 -45.13,-23.55 -14.09,0 -28.75,6.29 -38.34,15.94 -5.64,5.67 -9.92,12.44 -12.72,19.98 -3.42,9.23 -2.33,9.75 -3.47,18.14 -0.51,3.74 1.61,14.9 3.1,18.64 2.42,6.12 4.63,9.83 6.73,15.17 1.9,4.84 3.5,11.82 3.5,18.41z"/>
   <path class="fil0" d="M174.91 411.06c0,11.87 4.19,23.84 10.83,32.65l10.89 11.03c4.24,3.03 8.83,5.92 14.21,7.7 8.63,2.85 8.28,2.68 18.41,3.52 2.1,0.17 7.41,-0.61 9.77,-0.93 16.51,-2.2 27.27,-17.35 55.38,-10.94 4.66,1.06 8.71,3.02 10.33,3.4 -0.93,1.27 -10.73,6.5 -9.83,20.6 0.11,1.72 0.25,2.68 0.63,3.97 1.95,6.6 6.06,11.35 12.14,14.35 5.85,2.89 13.57,2.57 19.39,-0.24 6.88,-3.32 12.34,-11.23 12.34,-19.71 0,-6.51 -2.26,-18.25 -3.93,-24.53 -6.33,-23.92 -16.32,-39.86 -31.97,-57.63 -2.58,-2.93 -9.93,-9.51 -13.15,-12.02 -5.51,-4.29 -7.01,-5.29 -12.62,-8.97 -3.63,-2.37 -10.17,-5.84 -13.98,-7.6 -18.86,-8.74 -34.57,-12.78 -54.46,-5.3l-6.81 3.33c-5.41,3.25 -7.21,4.56 -11.63,8.97 -2.28,2.28 -4.37,4.61 -6.13,7.28 -1.82,2.75 -3.6,5.49 -4.95,8.78 -2.99,7.3 -4.86,13.82 -4.86,22.29z"/>
   <path class="fil0" d="M1180.47 162.2c0,2.32 1.32,4.44 2.36,6.15 0.56,0.93 0.81,1.57 1.35,2.57 4.01,7.48 9.54,16.69 13.3,23.98 5.27,10.2 12.36,21.79 17.65,32.05 0.89,1.72 2.06,3.51 2.95,5.23l24.85 45.13c1,1.93 4.09,6.67 4.26,8.17 0.32,3.03 0,49.24 -0.01,58.21 0,3.49 -0.32,4.69 1.11,7.07 0.97,1.64 3.01,3.07 5.43,3.07l32.38 0c2.23,0 4.39,-1.58 5.23,-2.94 1.3,-2.11 0.98,-3.94 0.98,-7.2l0 -49.71c0,-4.93 -0.81,-7.81 1.12,-10.98l33.98 -61.18c3.97,-7.82 10.8,-18.75 14.72,-26.48l14.82 -26.71c1.64,-3.08 3.64,-6.61 0.35,-10.27 -0.84,-0.94 -2.15,-1.72 -3.84,-1.72l-30.74 0c-5.24,0 -7.64,3.61 -9.58,7.09l-18.56 32.46c-0.56,0.97 -24.2,41.87 -24.51,43.18 -1.06,-0.71 -5.36,-8.67 -6.31,-10.36l-15.33 -26.85c-1.12,-1.86 -1.98,-3.52 -3.11,-5.4l-18.43 -32.26c-1.89,-3.27 -4.15,-7.86 -9.14,-7.86l-31.72 0c-2.3,0 -5.56,3.26 -5.56,5.56z"/>
   <path class="fil0" d="M1938.82 162.85l0 184.76c0,3.35 2.87,6.22 6.21,6.22l33.35 0c3.31,0 6.22,-3.27 6.22,-6.54l0 -184.11c0,-3.27 -2.91,-6.54 -6.22,-6.54l-33.35 0c-3.3,0 -6.21,2.96 -6.21,6.21z"/>
   <path class="fil0" d="M1140.25 410.07l0 127.21c0,1.02 0.72,2.1 1.24,2.68 0.55,0.61 1.61,1.25 2.68,1.25l21.91 0c1.68,0 3.12,-1.35 3.63,-2.59 0.58,-1.44 0.3,-4.27 0.3,-6.24l0 -38.26c0,-12.8 -0.51,-22.06 9.74,-28.52 7.34,-4.63 21.51,-3.2 26.4,6.44 3.25,6.43 2.77,13.06 2.77,22.4 0,2.81 -0.39,42.28 0.22,43.93 0.47,1.26 2.12,2.84 3.71,2.84l21.58 0c2.9,0 4.58,-2.04 4.58,-4.91l0 -55.92c0,-5.87 -1.25,-11.32 -2.82,-15.82 -1.42,-4.09 -4.35,-9.17 -6.91,-12.05 -2.11,-2.37 -4.85,-4.84 -7.58,-6.49 -9.57,-5.75 -22.28,-7 -33.12,-4.29 -1.79,0.44 -2.12,0.58 -3.67,1.23 -11.12,4.73 -11.27,7.85 -14.9,10.28 0,-2.92 0.4,-42.45 -0.21,-44.26 -0.47,-1.42 -2.01,-2.83 -3.72,-2.83l-22.23 0c-1.84,0 -3.6,2.16 -3.6,3.92z"/>
   <path class="fil0" d="M1289.7 454.22c0,-2.33 0.21,-5.97 -0.03,-8.14 -0.12,-1.03 -0.51,-2.13 -1.21,-2.72 -0.54,-0.45 -2.13,-1.24 -3.02,-1.24l-18.96 0c-2.36,0 -4.58,1.65 -4.58,3.93l0 91.23c0,1.97 1.96,3.93 3.92,3.93l21.26 0c4.78,0 3.92,-6.72 3.92,-8.51l0 -38.26c0,-10.68 -0.85,-22.83 9.5,-28.76 8.57,-4.92 21.65,-3.12 26.37,6.3 3.1,6.18 2.72,13.77 2.72,22.79l0 37.93c0,1.93 -0.27,4.41 0.41,5.81 0.59,1.22 2.17,2.7 3.84,2.7l21.58 0c1.83,0 3.93,-2.11 3.93,-3.93l0 -56.57c0,-12.7 -6.17,-26.72 -14.06,-32.71 -1.7,-1.29 -3.66,-2.7 -5.77,-3.7 -2.3,-1.1 -4.34,-1.81 -6.94,-2.55 -6.55,-1.84 -16.78,-1.69 -23.27,0.04 -1.36,0.37 -2.81,0.79 -3.97,1.26 -11.06,4.47 -14.33,10.29 -15.64,11.17z"/>
   <path class="fil0" d="M962.36 459.45c2.87,0 6.12,0.94 8.32,1.82 7.4,2.95 10.31,13.59 10.31,21.07l-37.27 0c0,-2.17 0.49,-6.62 1.18,-8.95 2.55,-8.56 8.15,-13.94 17.46,-13.94zm-48.08 27.15c0,15.56 0.05,27.7 9.81,40.55 4.02,5.3 10.77,9.74 16.92,12.19 16.15,6.44 35.76,4.82 51.22,-3.58 2.7,-1.47 7.91,-5.3 9.74,-7.58 2.4,-2.99 6.17,-7.68 6.17,-12.15 0,-1.84 -1.44,-3.27 -3.27,-3.27l-21.91 0c-2.64,0 -4.4,2.07 -5.56,3.59 -2.5,3.28 -7.38,6.56 -11.46,6.85 -3.08,0.22 -5.47,0.33 -8.42,-0.38 -9.22,-2.21 -13.8,-13.12 -13.8,-23.14l62.46 0c5.64,0 4.57,-6.28 4.57,-11.12 0,-7.17 -1.44,-12.93 -3.55,-19.34 -1.49,-4.52 -5.25,-11.29 -8.63,-14.59 -4.68,-4.59 -6.2,-6.4 -13.32,-9.9 -8.59,-4.21 -16.63,-4.24 -26.17,-4.24 -7.37,0 -13.27,1.8 -18.59,3.96 -2.44,0.99 -5.15,2.6 -7.37,4.08 -11.91,7.93 -18.84,23.41 -18.84,38.07z"/>
   <path class="fil0" d="M810.29 412.69l0 17.01c0,2.61 1.97,4.57 4.58,4.57l34.67 0 0 102.03c0,2.3 1.74,4.91 3.92,4.91l22.24 0c3.48,0 4.57,-2.7 4.57,-6.22l0 -100.72 34.67 0c3.12,0 4.58,-2.4 4.58,-5.56l0 -15.04c0,-2.69 -1.4,-5.56 -3.93,-5.56l-101.37 0c-1.94,0 -3.93,1.83 -3.93,4.58z"/>
   <path class="fil0" d="M1071.9 543.17c12.67,0 23.92,-1.72 33.88,-8.97 5.82,-4.24 9.51,-8.15 12.78,-14.69 1.18,-2.35 4.55,-10.11 2.17,-12.74 -0.83,-0.9 -1.88,-2.19 -3.37,-2.19l-21.58 0c-3.96,0 -4.26,6.52 -8.43,11.2 -1.99,2.24 -2.78,2.84 -5.91,3.89 -3.7,1.24 -9.09,1.41 -12.68,0.49 -15.1,-3.89 -13.21,-22.23 -13.21,-34.55 0,-6.58 1.48,-12.42 4.34,-16.26 1.57,-2.09 3.19,-3.62 5.58,-4.89 4.82,-2.57 11.35,-2.62 16.39,-0.58 9.65,3.91 8.9,14.87 14.24,14.87l21.26 0c1.06,0 2.09,-0.64 2.71,-1.21 0.41,-0.37 1.54,-1.96 1.54,-2.39 0,-15.66 -16.49,-29.62 -30.82,-32.95 -12.37,-2.87 -29.23,-2.5 -40.46,2.54 -7.06,3.17 -12.19,7.52 -16.55,13.54l-4.25 7.85c-1.78,4.25 -3.15,10.05 -3.42,14.9 -0.1,1.86 -0.32,3.23 -0.31,5.57 0.02,2.35 -0.39,3.4 -0.35,5.89 0.04,2.03 0.37,3.15 0.34,5.55 -0.07,8.95 2.97,20.75 8.61,27.7 1.95,2.4 3.58,4.45 5.83,6.26 2.22,1.8 4.51,3.66 7.04,5.06 6.56,3.64 15.84,6.11 24.63,6.11z"/>
   <path class="fil0" d="M1430.31 488.56c0,16.12 0.51,29.45 12.35,41.28 10.57,10.58 22.18,13.33 37.68,13.33 16.48,0 31.62,-6.4 40.62,-19.88 2.72,-4.08 5.17,-8.44 5.17,-15.11 0,-1.05 -2.32,-3.6 -4.26,-3.6l-21.91 0c-4.33,0 -4.52,12.65 -14.44,15.31 -3.01,0.81 -5.74,0.95 -8.78,0.73 -11.8,-0.83 -16.67,-10.63 -16.67,-23.23 0,-12.96 -1.4,-25.7 9.54,-32.65 6.1,-3.87 17.51,-3.06 22.47,3.26 9.92,12.64 -2.4,10.75 30.12,10.75 1.7,0 3.93,-1.79 3.93,-4.91 0,-9.1 -7.78,-18.76 -14.67,-23.92 -2.07,-1.54 -3.41,-2.37 -5.82,-3.66 -0.72,-0.38 -0.92,-0.54 -1.48,-0.81l-5.36 -2.16c-11.15,-3.21 -12.75,-2.8 -24.34,-2.8 -2,0 -3.21,0.24 -5.05,0.51 -1.81,0.27 -3.57,0.41 -5.1,0.79 -9.42,2.29 -15.63,5.26 -22.48,12.18 -1.55,1.57 -3.73,4.63 -4.88,6.57 -4.95,8.31 -6.64,17.3 -6.64,28.02z"/>
   <path class="fil0" d="M1541.5 470.24c0,4.45 1.5,11.44 4.01,14.63 5.38,6.82 10.39,9.79 19,12.72 14,4.77 34.87,4.88 34.87,16.47 0,4.7 -2.7,6.84 -6.12,8.28 -3.88,1.64 -7.36,1.85 -12.18,1.52 -9.38,-0.65 -15.83,-10.12 -18.98,-10.12l-18.64 0c-2.02,0 -4.25,1.67 -4.25,4.58 0,7.03 9.08,15.19 15.15,18.2 5.16,2.56 6.36,3.05 12.06,4.62 12.07,3.32 32.61,2.67 43.42,-2.22 4.61,-2.09 6.48,-3.08 10.42,-6.26 6.33,-5.12 8.39,-10.44 9.26,-18.22 1.86,-16.62 -12.74,-27.45 -29.09,-31.19 -8.29,-1.89 -18.43,-3.26 -25.91,-7.11 -7.95,-4.1 -6.12,-16.69 8.83,-16.69 5.2,0 7.99,1.2 11.13,3.27 11.96,7.89 0.88,6.22 27.46,6.22 2.57,0 3.87,-2.5 3.76,-4.82 -0.25,-5.34 -7.39,-12.44 -11.54,-15.2 -12.07,-8.03 -20.15,-8.43 -35.06,-8.43 -4.67,0 -10.77,1.13 -14.35,2.33 -8.45,2.83 -16.95,9.03 -20.68,17.24 -0.42,0.93 -0.96,1.9 -1.31,2.94 -0.57,1.69 -1.26,4.95 -1.26,7.24z"/>
   <path class="fil0" d="M1382.24 447.03l0 89.27c0,2.3 1.75,4.91 3.92,4.91l19.95 0c3.48,0 4.58,-2.7 4.58,-6.22l0 -86.66c0,-3 -1.02,-6.21 -4.25,-6.21l-19.95 0c-1.14,0 -2.41,0.69 -3.09,1.49 -0.66,0.8 -1.16,2.08 -1.16,3.42z"/>
   <path class="fil0" d="M1381.59 406.8l0 15.37c0,2.91 1.99,4.91 4.9,4.91l19.62 0c3.94,0 5.23,-2.56 5.23,-6.21 0,-3.4 0.57,-14.68 -0.9,-16.76 -0.58,-0.82 -2.03,-1.88 -3.35,-1.88l-21.58 0c-1.92,0 -3.92,1.95 -3.92,4.57z"/>
  </g>
 </g>
</svg>
